<svg width="203" height="32" fill="none" xmlns="http://www.w3.org/2000/svg"><path fill-rule="evenodd" clip-rule="evenodd" d="M32 0v5.625h-5.625V3.75h-1.938v6.723c2.458 1.658 4.32 3.549 5.879 5.527-1.542 1.958-3.417 3.866-5.878 5.527v6.723h1.937v-1.875H32V32h-5.625v-1.875h-3.813v-7.47c-1.893 1.001-3.79 1.592-5.625 1.743v1.977h1.875V32h-5.625v-5.625h1.876v-1.977c-1.834-.151-3.732-.742-5.626-1.743v7.47H5.626V32H0v-5.625h5.625v1.875h1.938v-6.723C5.11 19.872 3.245 17.983 1.684 16c1.542-1.958 3.417-3.867 5.878-5.527V3.75H5.625v1.875H0V0h5.625v1.875h3.813v7.47c1.893-1.001 3.79-1.592 5.624-1.743V5.625h-1.874V0h5.624v5.625h-1.875v1.977c1.834.151 3.732.742 5.625 1.743v-7.47h3.813V0H32zM16.937 1.875h-1.875V3.75h1.876V1.875zM1.876 3.75H3.75V1.875H1.875V3.75zm0 26.375H3.75V28.25H1.875v1.875zm13.188-1.875v1.875h1.874V28.25h-1.875zm15.062 0H28.25v1.875h1.875V28.25zM16 22.562c5.554 0 10.376-4.86 11.893-6.562-1.517-1.701-6.34-6.563-11.893-6.563-5.568 0-10.38 4.861-11.894 6.562 1.516 1.7 6.339 6.563 11.894 6.563zM30.125 1.875H28.25V3.75h1.875V1.875zM11.312 16A4.693 4.693 0 0016 20.688 4.693 4.693 0 0020.688 16 4.693 4.693 0 0016 11.312 4.693 4.693 0 0011.312 16zm7.5 0A2.816 2.816 0 0116 18.813 2.816 2.816 0 0113.187 16 2.816 2.816 0 0116 13.187 2.816 2.816 0 0118.813 16zm-3.75-.938h1.876v1.876h-1.875v-1.875z" fill="#357AFF"/><path d="M49.138 23h2.768v-4.244h2.326c3.01 0 4.762-1.797 4.762-4.41 0-2.602-1.72-4.437-4.691-4.437h-5.165V23zm2.768-6.462v-4.366h1.866c1.598 0 2.372.87 2.372 2.173 0 1.298-.774 2.193-2.36 2.193h-1.878zm11.738.786c.006-1.266.78-2.007 1.892-2.007 1.106 0 1.758.71 1.751 1.917V23h2.723v-6.251c.007-2.302-1.348-3.695-3.394-3.695-1.49 0-2.486.703-2.934 1.86h-.115V9.91h-2.646V23h2.723v-5.676zm13.125 5.868c2.98 0 4.833-2.04 4.833-5.063 0-3.042-1.854-5.075-4.833-5.075-2.978 0-4.832 2.033-4.832 5.075 0 3.024 1.854 5.063 4.832 5.063zm.013-2.11c-1.374 0-2.077-1.259-2.077-2.972s.703-2.979 2.077-2.979c1.349 0 2.052 1.266 2.052 2.98 0 1.712-.703 2.971-2.052 2.971zm9.493-3.758c.007-1.266.761-2.007 1.86-2.007 1.094 0 1.752.716 1.746 1.917V23h2.723v-6.251c0-2.289-1.343-3.695-3.388-3.695-1.458 0-2.512.716-2.953 1.86h-.115v-1.732h-2.596V23h2.723v-5.676zm13.13 5.868c2.428 0 4.064-1.183 4.448-3.005l-2.518-.166c-.275.748-.978 1.138-1.886 1.138-1.362 0-2.225-.901-2.225-2.365v-.006h6.687v-.748c0-3.337-2.02-4.986-4.615-4.986-2.89 0-4.763 2.052-4.763 5.082 0 3.113 1.848 5.056 4.871 5.056zm-2.18-6.092c.057-1.119.907-2.013 2.115-2.013 1.183 0 2.001.843 2.007 2.013h-4.123z" fill="#000"/><path d="M105.919 9.91V23h2.684v-8.553h.109l3.388 8.49h1.828l3.388-8.458h.108V23h2.685V9.91h-3.413l-3.605 8.794h-.154l-3.605-8.795h-3.413zm21.035 13.282c2.979 0 4.833-2.04 4.833-5.063 0-3.042-1.854-5.075-4.833-5.075-2.978 0-4.832 2.033-4.832 5.075 0 3.024 1.854 5.063 4.832 5.063zm.013-2.11c-1.374 0-2.077-1.259-2.077-2.972s.703-2.979 2.077-2.979c1.349 0 2.052 1.266 2.052 2.98 0 1.712-.703 2.971-2.052 2.971zm9.493-3.758c.007-1.266.761-2.007 1.86-2.007 1.093 0 1.752.716 1.745 1.917V23h2.723v-6.251c0-2.289-1.342-3.695-3.387-3.695-1.458 0-2.512.716-2.953 1.86h-.116v-1.732h-2.595V23h2.723v-5.676zM145.115 23h2.723v-9.818h-2.723V23zm1.367-11.084c.812 0 1.477-.62 1.477-1.38 0-.755-.665-1.375-1.477-1.375-.805 0-1.47.62-1.47 1.375 0 .76.665 1.38 1.47 1.38zm8.939 1.266h-1.847v-2.353h-2.723v2.353h-1.343v2.045h1.343v5.114c-.013 1.924 1.297 2.876 3.273 2.793a5.295 5.295 0 001.476-.255l-.428-2.027c-.134.026-.422.09-.678.09-.543 0-.92-.205-.92-.959v-4.756h1.847v-2.045zm6.285 10.01c2.978 0 4.832-2.04 4.832-5.063 0-3.042-1.854-5.075-4.832-5.075-2.979 0-4.833 2.033-4.833 5.075 0 3.024 1.854 5.063 4.833 5.063zm.012-2.11c-1.374 0-2.077-1.259-2.077-2.972s.703-2.979 2.077-2.979c1.349 0 2.052 1.266 2.052 2.98 0 1.712-.703 2.971-2.052 2.971zM168.489 23h2.723v-5.555c0-1.208.882-2.039 2.083-2.039.377 0 .895.064 1.151.147v-2.416a4.086 4.086 0 00-.857-.096c-1.099 0-2 .64-2.358 1.854h-.103v-1.713h-2.639V23zm7.545 0h2.723v-9.818h-2.723V23zm1.368-11.084c.811 0 1.476-.62 1.476-1.38 0-.755-.665-1.375-1.476-1.375-.806 0-1.471.62-1.471 1.375 0 .76.665 1.38 1.471 1.38zm6.439 5.408c.006-1.266.761-2.007 1.86-2.007 1.093 0 1.752.716 1.745 1.917V23h2.723v-6.251c0-2.289-1.342-3.695-3.388-3.695-1.457 0-2.512.716-2.953 1.86h-.115v-1.732h-2.595V23h2.723v-5.676zm13.078 9.562c2.806 0 4.8-1.278 4.8-3.79v-9.914h-2.704v1.649h-.102c-.364-.799-1.163-1.777-2.806-1.777-2.154 0-3.976 1.675-3.976 5.018 0 3.266 1.771 4.787 3.982 4.787 1.566 0 2.442-.786 2.8-1.598h.115v1.797c0 1.348-.863 1.872-2.045 1.872-1.202 0-1.809-.524-2.033-1.118l-2.519.339c.326 1.546 1.841 2.735 4.488 2.735zm.057-6.072c-1.336 0-2.064-1.061-2.064-2.755 0-1.668.715-2.838 2.064-2.838 1.323 0 2.065 1.119 2.065 2.838 0 1.732-.754 2.755-2.065 2.755z" fill="#357AFF"/></svg>