<svg width="15" height="17" fill="none" xmlns="http://www.w3.org/2000/svg"><path fill-rule="evenodd" clip-rule="evenodd" d="M1.5 2.25A.25.25 0 011.75 2h8.5a.25.25 0 01.25.25v7.736a.75.75 0 101.5 0V2.25A1.75 1.75 0 0010.25.5h-8.5A1.75 1.75 0 000 2.25v11.5c0 .966.783 1.75 1.75 1.75h3.17a.75.75 0 000-1.5H1.75a.25.25 0 01-.25-.25V2.25zM3.75 4.5a.75.75 0 000 1.5h4.5a.75.75 0 000-1.5h-4.5zM3 8.25a.75.75 0 01.75-.75h2a.75.75 0 010 1.5h-2A.75.75 0 013 8.25zm11.774 3.537a.75.75 0 00-1.048-1.074L9.7 14.645 8.281 13.22a.75.75 0 00-1.062 1.058l1.943 1.95a.75.75 0 001.055.008l4.557-4.45z" fill="#357AFF"/></svg>