<svg width="20" height="22" fill="none" xmlns="http://www.w3.org/2000/svg"><path fill-rule="evenodd" clip-rule="evenodd" d="M15.659 12.125l-2.954 2.954a1.125 1.125 0 101.59 1.591l4.876-4.875a1.124 1.124 0 000-1.59L14.296 5.33a1.125 1.125 0 10-1.591 1.59l2.954 2.955H7.125a1.125 1.125 0 000 2.25h8.534z" fill="#357AFF"/><path fill-rule="evenodd" clip-rule="evenodd" d="M0 3.125A2.625 2.625 0 012.625.5h3.75a1.125 1.125 0 010 2.25h-3.75a.375.375 0 00-.375.375v15.75c0 .207.168.375.375.375h3.75a1.125 1.125 0 010 2.25h-3.75A2.625 2.625 0 010 18.875V3.125z" fill="#357AFF"/></svg>