<svg width="203" height="32" viewBox="0 0 203 32" fill="none" xmlns="http://www.w3.org/2000/svg">
<path fill-rule="evenodd" clip-rule="evenodd" d="M32 0V5.625H26.375V3.75H24.4375V10.4731C26.8946 12.1308 28.7577 14.0216 30.316 16C28.7741 17.9576 26.8986 19.8665 24.4375 21.5269V28.25H26.375V26.375H32V32H26.375V30.125H22.5625V22.6547C20.6689 23.6562 18.7712 24.2467 16.9375 24.3981V26.375H18.8125V32H13.1875V26.375H15.0625V24.3981C13.2288 24.2468 11.3311 23.6563 9.4375 22.6548V30.125H5.625V32H0V26.375H5.625V28.25H7.5625V21.5269C5.11006 19.8723 3.24563 17.9826 1.684 16C3.22594 14.0424 5.1015 12.1335 7.5625 10.4731V3.75H5.625V5.625H0V0H5.625V1.875H9.4375V9.34525C11.3311 8.34375 13.2288 7.75325 15.0625 7.60194V5.625H13.1875V0H18.8125V5.625H16.9375V7.60194C18.7712 7.75325 20.6689 8.34375 22.5625 9.34531V1.875H26.375V0H32ZM16.9375 1.875H15.0625V3.75H16.9375V1.875ZM1.875 3.75H3.75V1.875H1.875V3.75ZM1.875 30.125H3.75V28.25H1.875V30.125ZM15.0625 28.25V30.125H16.9375V28.25H15.0625ZM30.125 28.25H28.25V30.125H30.125V28.25ZM16 22.5625C21.5537 22.5625 26.3762 17.7011 27.8932 16C26.3762 14.2989 21.5537 9.4375 16 9.4375C10.4321 9.4375 5.61937 14.2983 4.10606 15.9993C5.62175 17.6991 10.445 22.5625 16 22.5625ZM30.125 1.875H28.25V3.75H30.125V1.875ZM11.3125 16C11.3125 18.5847 13.4153 20.6875 16 20.6875C18.5847 20.6875 20.6875 18.5847 20.6875 16C20.6875 13.4153 18.5847 11.3125 16 11.3125C13.4153 11.3125 11.3125 13.4153 11.3125 16ZM18.8125 16C18.8125 17.5508 17.5508 18.8125 16 18.8125C14.4492 18.8125 13.1875 17.5508 13.1875 16C13.1875 14.4492 14.4492 13.1875 16 13.1875C17.5508 13.1875 18.8125 14.4492 18.8125 16ZM15.0625 15.0625H16.9375V16.9375H15.0625V15.0625Z" fill="#357AFF"/>
<path d="M49.1378 23H51.9055V18.7557H54.2322C57.2429 18.7557 58.9943 16.9595 58.9943 14.3452C58.9943 11.7436 57.2749 9.90909 54.3026 9.90909H49.1378V23ZM51.9055 16.5376V12.1719H53.772C55.37 12.1719 56.1435 13.0412 56.1435 14.3452C56.1435 15.6428 55.37 16.5376 53.7848 16.5376H51.9055ZM63.644 17.3239C63.6503 16.0582 64.4238 15.3168 65.536 15.3168C66.6418 15.3168 67.2938 16.0263 67.2874 17.2344V23H70.0104V16.7486C70.0168 14.4474 68.6617 13.054 66.6163 13.054C65.1269 13.054 64.1298 13.7571 63.6823 14.9141H63.5673V9.90909H60.9209V23H63.644V17.3239ZM76.7694 23.1918C79.7481 23.1918 81.6018 21.1527 81.6018 18.1293C81.6018 15.0866 79.7481 13.054 76.7694 13.054C73.7908 13.054 71.9371 15.0866 71.9371 18.1293C71.9371 21.1527 73.7908 23.1918 76.7694 23.1918ZM76.7822 21.0824C75.4079 21.0824 74.7048 19.8232 74.7048 18.1101C74.7048 16.397 75.4079 15.1314 76.7822 15.1314C78.131 15.1314 78.8341 16.397 78.8341 18.1101C78.8341 19.8232 78.131 21.0824 76.7822 21.0824ZM86.2754 17.3239C86.2818 16.0582 87.0361 15.3168 88.1355 15.3168C89.2286 15.3168 89.8869 16.0327 89.8806 17.2344V23H92.6036V16.7486C92.6036 14.4602 91.2612 13.054 89.2158 13.054C87.7584 13.054 86.7037 13.7699 86.2627 14.9141H86.1476V13.1818H83.5524V23H86.2754V17.3239ZM99.4041 23.1918C101.833 23.1918 103.469 22.0092 103.853 20.1875L101.335 20.0213C101.06 20.7692 100.357 21.1591 99.4489 21.1591C98.0874 21.1591 97.2244 20.2578 97.2244 18.794V18.7876H103.911V18.0398C103.911 14.7031 101.891 13.054 99.2955 13.054C96.4063 13.054 94.5334 15.1058 94.5334 18.1357C94.5334 21.2486 96.3807 23.1918 99.4041 23.1918ZM97.2244 17.1001C97.282 15.9815 98.1321 15.0866 99.3402 15.0866C100.523 15.0866 101.341 15.9304 101.347 17.1001H97.2244Z" fill="black"/>
<path d="M105.919 9.90909V23H108.603V14.4474H108.712L112.1 22.9361H113.928L117.316 14.4794H117.424V23H120.109V9.90909H116.696L113.091 18.7045H112.937L109.332 9.90909H105.919ZM126.954 23.1918C129.933 23.1918 131.787 21.1527 131.787 18.1293C131.787 15.0866 129.933 13.054 126.954 13.054C123.976 13.054 122.122 15.0866 122.122 18.1293C122.122 21.1527 123.976 23.1918 126.954 23.1918ZM126.967 21.0824C125.593 21.0824 124.89 19.8232 124.89 18.1101C124.89 16.397 125.593 15.1314 126.967 15.1314C128.316 15.1314 129.019 16.397 129.019 18.1101C129.019 19.8232 128.316 21.0824 126.967 21.0824ZM136.46 17.3239C136.467 16.0582 137.221 15.3168 138.32 15.3168C139.413 15.3168 140.072 16.0327 140.065 17.2344V23H142.788V16.7486C142.788 14.4602 141.446 13.054 139.401 13.054C137.943 13.054 136.889 13.7699 136.448 14.9141H136.332V13.1818H133.737V23H136.46V17.3239ZM145.115 23H147.838V13.1818H145.115V23ZM146.482 11.9162C147.294 11.9162 147.959 11.2962 147.959 10.5355C147.959 9.78125 147.294 9.16122 146.482 9.16122C145.677 9.16122 145.012 9.78125 145.012 10.5355C145.012 11.2962 145.677 11.9162 146.482 11.9162ZM155.421 13.1818H153.574V10.8295H150.851V13.1818H149.508V15.2273H150.851V20.3409C150.838 22.2649 152.148 23.2173 154.124 23.1342C154.827 23.1087 155.325 22.968 155.6 22.8786L155.172 20.8523C155.038 20.8778 154.75 20.9418 154.494 20.9418C153.951 20.9418 153.574 20.7372 153.574 19.983V15.2273H155.421V13.1818ZM161.706 23.1918C164.684 23.1918 166.538 21.1527 166.538 18.1293C166.538 15.0866 164.684 13.054 161.706 13.054C158.727 13.054 156.873 15.0866 156.873 18.1293C156.873 21.1527 158.727 23.1918 161.706 23.1918ZM161.718 21.0824C160.344 21.0824 159.641 19.8232 159.641 18.1101C159.641 16.397 160.344 15.1314 161.718 15.1314C163.067 15.1314 163.77 16.397 163.77 18.1101C163.77 19.8232 163.067 21.0824 161.718 21.0824ZM168.489 23H171.212V17.4453C171.212 16.2372 172.094 15.4062 173.295 15.4062C173.672 15.4062 174.19 15.4702 174.446 15.5533V13.1371C174.203 13.0795 173.864 13.0412 173.589 13.0412C172.49 13.0412 171.589 13.6804 171.231 14.8949H171.128V13.1818H168.489V23ZM176.034 23H178.757V13.1818H176.034V23ZM177.402 11.9162C178.213 11.9162 178.878 11.2962 178.878 10.5355C178.878 9.78125 178.213 9.16122 177.402 9.16122C176.596 9.16122 175.931 9.78125 175.931 10.5355C175.931 11.2962 176.596 11.9162 177.402 11.9162ZM183.841 17.3239C183.847 16.0582 184.602 15.3168 185.701 15.3168C186.794 15.3168 187.453 16.0327 187.446 17.2344V23H190.169V16.7486C190.169 14.4602 188.827 13.054 186.781 13.054C185.324 13.054 184.269 13.7699 183.828 14.9141H183.713V13.1818H181.118V23H183.841V17.3239ZM196.919 26.8864C199.725 26.8864 201.719 25.608 201.719 23.0959V13.1818H199.015V14.831H198.913C198.549 14.032 197.75 13.054 196.107 13.054C193.953 13.054 192.131 14.7287 192.131 18.0717C192.131 21.3381 193.902 22.8594 196.113 22.8594C197.679 22.8594 198.555 22.0732 198.913 21.2614H199.028V23.0575C199.028 24.4062 198.165 24.9304 196.983 24.9304C195.781 24.9304 195.174 24.4062 194.95 23.8118L192.431 24.1506C192.757 25.6974 194.272 26.8864 196.919 26.8864ZM196.976 20.8139C195.64 20.8139 194.912 19.7528 194.912 18.0589C194.912 16.3906 195.627 15.2209 196.976 15.2209C198.299 15.2209 199.041 16.3395 199.041 18.0589C199.041 19.7912 198.287 20.8139 196.976 20.8139Z" fill="#357AFF"/>
</svg>
