<svg width="10" height="10" viewBox="0 0 10 10" fill="none" xmlns="http://www.w3.org/2000/svg">
<path fill-rule="evenodd" clip-rule="evenodd" d="M5 8.5C5.92826 8.5 6.8185 8.1313 7.4749 7.4749C8.1313 6.8185 8.5 5.92826 8.5 5C8.5 4.07174 8.1313 3.1815 7.4749 2.52513C6.8185 1.86875 5.92826 1.5 5 1.5C4.07174 1.5 3.1815 1.86875 2.52513 2.52513C1.86875 3.1815 1.5 4.07174 1.5 5C1.5 5.92826 1.86875 6.8185 2.52513 7.4749C3.1815 8.1313 4.07174 8.5 5 8.5ZM5 10C6.32608 10 7.5979 9.4732 8.5355 8.5355C9.4732 7.5979 10 6.32608 10 5C10 3.67392 9.4732 2.40215 8.5355 1.46447C7.5979 0.52678 6.32608 0 5 0C3.67392 0 2.40215 0.52678 1.46447 1.46447C0.52678 2.40215 0 3.67392 0 5C0 6.32608 0.52678 7.5979 1.46447 8.5355C2.40215 9.4732 3.67392 10 5 10Z" fill="#A7A7A7"/>
</svg>
