<svg width="15" height="17" viewBox="0 0 15 17" fill="none" xmlns="http://www.w3.org/2000/svg">
<path fill-rule="evenodd" clip-rule="evenodd" d="M1.5 2.25C1.5 2.11193 1.61193 2 1.75 2H10.25C10.3881 2 10.5 2.11193 10.5 2.25V9.98645C10.5 10.4007 10.8358 10.7365 11.25 10.7365C11.6642 10.7365 12 10.4007 12 9.98645V2.25C12 1.2835 11.2165 0.5 10.25 0.5H1.75C0.7835 0.5 0 1.2835 0 2.25V13.75C0 14.7165 0.7835 15.5 1.75 15.5H4.92083C5.33504 15.5 5.67083 15.1642 5.67083 14.75C5.67083 14.3358 5.33504 14 4.92083 14H1.75C1.61193 14 1.5 13.8881 1.5 13.75V2.25ZM3.75 4.5C3.33579 4.5 3 4.83579 3 5.25C3 5.66421 3.33579 6 3.75 6H8.25C8.66421 6 9 5.66421 9 5.25C9 4.83579 8.66421 4.5 8.25 4.5H3.75ZM3 8.25C3 7.83579 3.33579 7.5 3.75 7.5H5.75C6.16421 7.5 6.5 7.83579 6.5 8.25C6.5 8.66421 6.16421 9 5.75 9H3.75C3.33579 9 3 8.66421 3 8.25ZM14.774 11.7866C15.0703 11.4972 15.076 11.0223 14.7866 10.726C14.4972 10.4296 14.0223 10.424 13.726 10.7134L9.7003 14.6447L8.28127 13.2206C7.98889 12.9272 7.51402 12.9264 7.22061 13.2187C6.9272 13.5111 6.92636 13.986 7.21873 14.2794L9.1618 16.2294C9.4521 16.5207 9.9229 16.5239 10.2171 16.2366L14.774 11.7866Z" fill="#357AFF"/>
</svg>
