<svg width="20" height="22" viewBox="0 0 20 22" fill="none" xmlns="http://www.w3.org/2000/svg">
<path fill-rule="evenodd" clip-rule="evenodd" d="M15.659 12.125L12.7046 15.0795C12.2652 15.5188 12.2652 16.2311 12.7046 16.6705C13.1439 17.1098 13.8562 17.1098 14.2955 16.6705L19.1705 11.7955C19.6098 11.3561 19.6098 10.6438 19.1705 10.2045L14.2955 5.32952C13.8562 4.89017 13.1439 4.89017 12.7046 5.32952C12.2652 5.76887 12.2652 6.48107 12.7046 6.92042L15.659 9.87497L7.125 9.87497C6.5037 9.87497 6 10.3787 6 11C6 11.6213 6.5037 12.125 7.125 12.125L15.659 12.125Z" fill="#357AFF"/>
<path fill-rule="evenodd" clip-rule="evenodd" d="M0 3.125C0 1.67525 1.17525 0.5 2.625 0.5H6.375C6.99632 0.5 7.5 1.00368 7.5 1.625C7.5 2.24632 6.99632 2.75 6.375 2.75H2.625C2.4179 2.75 2.25 2.9179 2.25 3.125V18.875C2.25 19.0821 2.4179 19.25 2.625 19.25H6.375C6.99632 19.25 7.5 19.7537 7.5 20.375C7.5 20.9963 6.99632 21.5 6.375 21.5H2.625C1.17525 21.5 0 20.3248 0 18.875V3.125Z" fill="#357AFF"/>
</svg>
